<svg width="180" height="180" viewBox="0 0 180 180" fill="none" xmlns="http://www.w3.org/2000/svg">
  <!-- Background with rounded corners for iOS -->
  <rect width="180" height="180" rx="40" fill="url(#gradient)"/>
  
  <!-- Define gradient -->
  <defs>
    <linearGradient id="gradient" x1="0%" y1="0%" x2="100%" y2="100%">
      <stop offset="0%" style="stop-color:#3b82f6;stop-opacity:1" />
      <stop offset="100%" style="stop-color:#8b5cf6;stop-opacity:1" />
    </linearGradient>
  </defs>
  
  <!-- Dollar sign with modern style -->
  <path d="M 90 35 L 90 145" stroke="white" stroke-width="12" stroke-linecap="round"/>
  
  <!-- Top curve of $ -->
  <path d="M 70 56 Q 70 46 80 46 L 100 46 Q 110 46 110 56 Q 110 66 100 66 L 80 66" 
        stroke="white" stroke-width="12" fill="none" stroke-linecap="round" stroke-linejoin="round"/>
  
  <!-- Bottom curve of $ -->
  <path d="M 110 112 Q 110 122 100 122 L 80 122 Q 70 122 70 112 Q 70 102 80 102 L 100 102" 
        stroke="white" stroke-width="12" fill="none" stroke-linecap="round" stroke-linejoin="round"/>
  
  <!-- Subtle chart/growth lines -->
  <path d="M 42 119 L 56 105 L 70 112 L 84 91 L 98 98 L 112 77 L 126 84 L 138 70" 
        stroke="rgba(255,255,255,0.2)" stroke-width="6" fill="none" stroke-linecap="round" stroke-linejoin="round"/>
</svg>
