<svg width="512" height="512" viewBox="0 0 512 512" fill="none" xmlns="http://www.w3.org/2000/svg">
  <!-- Background gradient circle -->
  <circle cx="256" cy="256" r="256" fill="url(#gradient)"/>
  
  <!-- Define gradient -->
  <defs>
    <linearGradient id="gradient" x1="0%" y1="0%" x2="100%" y2="100%">
      <stop offset="0%" style="stop-color:#3b82f6;stop-opacity:1" />
      <stop offset="100%" style="stop-color:#8b5cf6;stop-opacity:1" />
    </linearGradient>
  </defs>
  
  <!-- Dollar sign with modern style -->
  <path d="M 256 100 L 256 412" stroke="white" stroke-width="32" stroke-linecap="round"/>
  
  <!-- Top curve of $ -->
  <path d="M 200 160 Q 200 130 230 130 L 282 130 Q 312 130 312 160 Q 312 190 282 190 L 230 190" 
        stroke="white" stroke-width="32" fill="none" stroke-linecap="round" stroke-linejoin="round"/>
  
  <!-- Bottom curve of $ -->
  <path d="M 312 320 Q 312 350 282 350 L 230 350 Q 200 350 200 320 Q 200 290 230 290 L 282 290" 
        stroke="white" stroke-width="32" fill="none" stroke-linecap="round" stroke-linejoin="round"/>
  
  <!-- Subtle chart/growth lines in background -->
  <path d="M 120 340 L 160 300 L 200 320 L 240 260 L 280 280 L 320 220 L 360 240 L 392 200" 
        stroke="rgba(255,255,255,0.2)" stroke-width="16" fill="none" stroke-linecap="round" stroke-linejoin="round"/>
</svg>
